<?xml version="1.0" encoding="UTF-8"?>
<!DOCTYPE svg PUBLIC "-//W3C//DTD SVG 1.1//EN" "http://www.w3.org/Graphics/SVG/1.1/DTD/svg11.dtd">
<!-- Creator: CorelDRAW 2021 (64-Bit) -->
<svg xmlns="http://www.w3.org/2000/svg" xml:space="preserve" width="7.5in" height="2in" version="1.1" style="shape-rendering:geometricPrecision; text-rendering:geometricPrecision; image-rendering:optimizeQuality; fill-rule:evenodd; clip-rule:evenodd"
viewBox="0 0 1915.8 510.88"
 xmlns:xlink="http://www.w3.org/1999/xlink"
 xmlns:xodm="http://www.corel.com/coreldraw/odm/2003">
 <defs>
  <style type="text/css">
   <![CDATA[
    .fil0 {fill:#284575}
    .fil2 {fill:red}
    .fil1 {fill:#284575;fill-rule:nonzero}
   ]]>
  </style>
 </defs>
 <g id="Layer_x0020_1">
  <metadata id="CorelCorpID_0Corel-Layer"/>
  <g id="_1890369845104">
   <path class="fil0" d="M353.58 476.2l16.46 -7.61 0.91 3.3c0.55,2 1.33,3.75 2.32,5.23 0.98,1.47 2.17,2.69 3.55,3.67 1.42,1.02 3.04,1.78 4.86,2.29 1.89,0.53 4.03,0.79 6.41,0.79 2.18,0 4.1,-0.29 5.75,-0.87 1.58,-0.55 2.96,-1.39 4.14,-2.49 1.16,-1.09 2.02,-2.35 2.59,-3.79 0.58,-1.51 0.88,-3.24 0.88,-5.19 0,-2.27 -1,-4.48 -2.99,-6.62 -2.26,-2.42 -5.73,-4.74 -10.41,-6.94 -0.73,-0.21 -2.41,-1.17 -3.29,-1.55 -5.78,-2.83 -10.63,-5.53 -14.53,-8.11 -4.01,-2.65 -7.06,-5.22 -9.13,-7.68 -2.11,-2.51 -3.7,-5.32 -4.76,-8.41 -1.06,-3.04 -1.59,-6.34 -1.59,-9.89 0,-4.59 0.79,-8.77 2.37,-12.53 1.59,-3.78 3.98,-7.13 7.14,-10.03 3.14,-2.87 6.77,-5.03 10.88,-6.45 4.07,-1.41 8.58,-2.12 13.52,-2.12 4,0 7.71,0.4 11.11,1.18 3.47,0.8 6.61,2 9.41,3.6 2.83,1.62 5.26,3.63 7.26,6.01 1.99,2.36 3.54,5.08 4.64,8.15l0.86 2.39 -17.68 9.16 -1.43 -2.24c-0.93,-1.46 -1.9,-2.72 -2.9,-3.77 -0.93,-0.98 -1.92,-1.79 -2.95,-2.41 -1,-0.62 -2.08,-1.08 -3.22,-1.38 -1.16,-0.31 -2.42,-0.46 -3.78,-0.46 -1.94,0 -3.67,0.25 -5.16,0.74 -1.41,0.46 -2.63,1.16 -3.64,2.06 -1.02,0.88 -1.77,1.9 -2.25,3.05 -0.51,1.2 -0.76,2.6 -0.76,4.19 0,2.29 1.17,4.61 3.51,6.93 2.67,2.65 6.77,5.24 12.27,7.75 0.7,0.29 1.42,0.73 2.13,0.99 5.23,2.42 9.65,4.81 13.25,7.17 3.72,2.44 6.64,4.9 8.72,7.35 2.13,2.53 3.74,5.37 4.8,8.51 1.05,3.11 1.58,6.5 1.58,10.16 0,5.23 -0.84,9.97 -2.52,14.2 -1.68,4.27 -4.24,8 -7.64,11.18 -3.36,3.14 -7.34,5.51 -11.88,7.08 -4.49,1.55 -9.49,2.33 -15.03,2.33 -9.37,0 -17.13,-2.21 -23.26,-6.61 -3.11,-2.25 -5.69,-4.97 -7.71,-8.15 -2.01,-3.18 -3.49,-6.8 -4.43,-10.87l-0.53 -2.29 2.14 -0.99zm109.42 23.27l0 -105.96 22.54 0 0 38.05 44.91 0 0 -38.05 22.55 0 0 108.88 -22.55 0 0 -50.01 -44.91 0 0 50.01 -22.54 0 0 -2.91zm134.19 0l0 -105.96 22.54 0 0 108.88 -22.54 0 0 -2.91zm89.46 -62.87l1.39 0c4.52,0 8.25,-0.24 11.15,-0.71 2.69,-0.44 4.65,-1.05 5.86,-1.84 1.06,-0.69 1.87,-1.66 2.4,-2.9 0.6,-1.39 0.9,-3.18 0.9,-5.36 0,-2.35 -0.34,-4.31 -1.01,-5.87 -0.6,-1.41 -1.51,-2.52 -2.69,-3.33 -1.3,-0.89 -3.29,-1.58 -5.93,-2.07 -2.84,-0.52 -6.41,-0.79 -10.69,-0.79l-1.39 0 0 22.86zm-1.01 19.51l0 46.27 -21.53 0 0 -108.88 28.23 0c3.8,0 7.14,0.11 9.99,0.32 2.9,0.21 5.32,0.54 7.26,0.99 1.92,0.44 3.74,1.05 5.47,1.8 1.74,0.76 3.36,1.68 4.84,2.73l0.03 0.02c1.81,1.33 3.43,2.91 4.86,4.72 1.41,1.78 2.64,3.81 3.67,6.07 1,2.24 1.76,4.58 2.26,7.02 0.5,2.46 0.75,4.99 0.75,7.59 0,2.6 -0.25,5.14 -0.75,7.62 -0.5,2.49 -1.25,4.85 -2.24,7.08 -1.03,2.29 -2.25,4.34 -3.66,6.14 -1.43,1.83 -3.08,3.42 -4.93,4.74 -1.48,1.06 -3.1,1.96 -4.85,2.72 -1.72,0.75 -3.56,1.34 -5.48,1.77 -1.97,0.44 -4.4,0.76 -7.28,0.97 -2.84,0.2 -6.17,0.31 -9.95,0.31l-6.7 0zm103.81 -19.51l1.39 0c4.52,0 8.25,-0.24 11.15,-0.71 2.69,-0.44 4.65,-1.05 5.86,-1.84 1.06,-0.69 1.87,-1.66 2.4,-2.9 0.6,-1.39 0.9,-3.18 0.9,-5.36 0,-2.35 -0.34,-4.31 -1.01,-5.87 -0.6,-1.41 -1.51,-2.52 -2.69,-3.33 -1.3,-0.89 -3.29,-1.58 -5.93,-2.07 -2.84,-0.52 -6.41,-0.79 -10.69,-0.79l-1.39 0 0 22.86zm-1.01 19.51l0 46.27 -21.53 0 0 -108.88 28.23 0c3.8,0 7.14,0.11 9.99,0.32 2.9,0.21 5.32,0.54 7.26,0.99 1.92,0.44 3.74,1.05 5.47,1.8 1.74,0.76 3.36,1.68 4.84,2.73l0.03 0.02c1.81,1.33 3.43,2.91 4.86,4.72 1.41,1.78 2.64,3.81 3.67,6.07 1,2.24 1.76,4.58 2.26,7.02 0.5,2.46 0.75,4.99 0.75,7.59 0,2.6 -0.25,5.14 -0.75,7.62 -0.5,2.49 -1.25,4.85 -2.24,7.08 -1.03,2.29 -2.25,4.34 -3.66,6.14 -1.43,1.83 -3.08,3.42 -4.93,4.74 -1.48,1.06 -3.1,1.96 -4.85,2.72 -1.72,0.75 -3.56,1.34 -5.48,1.77 -1.97,0.44 -4.4,0.76 -7.28,0.97 -2.84,0.2 -6.17,0.31 -9.95,0.31l-6.7 0zm81.56 43.35l0 -105.96 22.54 0 0 108.88 -22.54 0 0 -2.91zm66.92 0l0 -113.91c24.18,23.24 49.95,46.58 73.18,70.54l3.49 3.78 0 -66.37 21.25 0 0 116.83c-24.61,-23.65 -50.69,-47.33 -74.41,-71.66l-2.26 -2.5 0 66.21 -21.24 0 0 -2.91zm201.87 -55.66l43.62 0c0.06,4.22 0.24,8.4 0.34,12.61 0,7.58 -1.1,14.35 -3.29,20.31 -2.23,6.04 -5.58,11.22 -10.05,15.54 -4.46,4.31 -9.83,7.54 -16.07,9.69 -6.16,2.11 -13.18,3.17 -21.03,3.17 -4.35,0 -8.51,-0.33 -12.45,-0.98 -3.94,-0.65 -7.66,-1.63 -11.15,-2.93 -3.51,-1.32 -6.82,-2.99 -9.9,-4.99 -3.06,-1.98 -5.91,-4.31 -8.52,-6.96 -2.58,-2.63 -4.87,-5.5 -6.84,-8.58 -1.96,-3.06 -3.63,-6.38 -5,-9.94 -1.37,-3.49 -2.4,-7.14 -3.09,-10.92 -0.7,-3.8 -1.04,-7.69 -1.04,-11.66 0,-8.14 1.39,-15.69 4.18,-22.63 1.4,-3.45 3.15,-6.72 5.24,-9.81 2.08,-3.07 4.5,-5.93 7.24,-8.57 2.63,-2.58 5.52,-4.88 8.63,-6.86 3.1,-1.98 6.43,-3.65 10,-5.02 3.55,-1.36 7.24,-2.38 11.03,-3.06 3.77,-0.67 7.67,-1.01 11.67,-1.01 4.21,0 8.24,0.4 12.1,1.18 3.86,0.79 7.5,1.97 10.88,3.54 3.38,1.56 6.62,3.56 9.67,5.98 3,2.37 5.84,5.17 8.48,8.39l1.93 2.34 -16.78 12.69 -1.78 -2.06c-1.61,-1.86 -3.32,-3.49 -5.12,-4.87 -1.77,-1.36 -3.66,-2.49 -5.65,-3.39 -2,-0.9 -4.1,-1.58 -6.29,-2.02 -2.21,-0.44 -4.59,-0.67 -7.14,-0.67 -5.23,0 -9.94,0.83 -14.15,2.48 -4.17,1.64 -7.88,4.11 -11.11,7.39 -3.25,3.29 -5.68,7.07 -7.3,11.33 -1.63,4.3 -2.45,9.15 -2.45,14.52 0,5.49 0.82,10.44 2.45,14.8 1.62,4.33 4.06,8.17 7.31,11.5 3.24,3.33 6.96,5.83 11.15,7.49 4.24,1.66 8.99,2.51 14.25,2.51 4.51,0 8.52,-0.52 12,-1.55 3.39,-1 6.32,-2.5 8.75,-4.47 2.39,-1.94 4.18,-4.22 5.36,-6.84 1.02,-2.27 1.61,-4.83 1.76,-7.69l-24.73 0 0 -19.95 2.91 0zm162.83 -6.77l3.48 0c3.82,0 7.04,-0.25 9.66,-0.76 2.44,-0.47 4.33,-1.15 5.65,-2.01 1.17,-0.79 2.06,-1.85 2.66,-3.18 0.65,-1.44 0.98,-3.25 0.98,-5.41 0,-2.48 -0.31,-4.54 -0.93,-6.16 -0.55,-1.44 -1.38,-2.57 -2.46,-3.38 -1.16,-0.87 -2.97,-1.55 -5.43,-2.04 -2.69,-0.53 -6.07,-0.79 -10.13,-0.79l-3.48 0 0 23.72zm0 45.54l2.85 0c2.94,0 5.45,-0.06 7.51,-0.17 2.12,-0.11 3.85,-0.28 5.18,-0.49 1.26,-0.21 2.4,-0.5 3.4,-0.85 0.91,-0.32 1.69,-0.71 2.33,-1.15l0.05 -0.04c0.8,-0.52 1.52,-1.15 2.13,-1.84 0.64,-0.74 1.19,-1.57 1.63,-2.47 0.47,-0.97 0.82,-1.96 1.04,-2.97 0.22,-1.05 0.34,-2.18 0.34,-3.37 0,-1.45 -0.14,-2.78 -0.42,-3.95 -0.29,-1.17 -0.7,-2.24 -1.24,-3.19 -0.55,-0.99 -1.21,-1.86 -1.98,-2.61 -0.77,-0.75 -1.66,-1.4 -2.66,-1.94 -0.66,-0.33 -1.37,-0.62 -2.12,-0.86 -0.76,-0.25 -1.61,-0.46 -2.51,-0.63 -0.93,-0.16 -2.04,-0.29 -3.31,-0.38 -1.24,-0.08 -2.69,-0.13 -4.33,-0.13l-7.9 0 0 27.04zm-22.25 16.89l0 -105.96 28.9 0c3.76,0 7.06,0.11 9.88,0.31 2.86,0.21 5.26,0.53 7.19,0.97 1.96,0.44 3.78,1.03 5.44,1.75 1.71,0.74 3.27,1.64 4.69,2.67 1.8,1.33 3.4,2.87 4.8,4.6 1.38,1.72 2.57,3.64 3.54,5.75 0.96,2.12 1.7,4.33 2.18,6.64 0.49,2.32 0.73,4.71 0.73,7.19 0,2.98 -0.36,5.76 -1.06,8.32 -0.72,2.62 -1.81,4.98 -3.25,7.08 -1.47,2.14 -3.27,3.95 -5.41,5.44l-0.07 0.06 1.53 0.81c2.7,1.57 5.03,3.64 6.97,6.22 1.92,2.54 3.38,5.41 4.33,8.59 0.95,3.13 1.42,6.56 1.42,10.29 0,2.22 -0.2,4.44 -0.6,6.62 -0.39,2.16 -0.99,4.27 -1.79,6.32 -0.8,2.08 -1.77,3.99 -2.89,5.72 -1.15,1.78 -2.47,3.4 -3.95,4.86 -1.59,1.6 -3.37,2.97 -5.33,4.1 -1.98,1.14 -4.13,2.03 -6.42,2.68 -2.28,0.64 -5.26,1.12 -8.93,1.42 -3.58,0.29 -7.87,0.45 -12.88,0.45l-29.05 0 0 -2.91zm106 -7.78c0,-1.66 0.29,-3.22 0.88,-4.67 0.58,-1.45 1.45,-2.78 2.6,-3.97 1.2,-1.21 2.52,-2.12 3.97,-2.72 1.45,-0.6 3.02,-0.91 4.68,-0.91 1.68,0 3.24,0.31 4.69,0.91 1.45,0.6 2.76,1.51 3.94,2.7 1.17,1.22 2.04,2.55 2.62,3.99 0.59,1.46 0.88,3.01 0.88,4.67 0,3.33 -1.18,6.18 -3.53,8.51 -1.2,1.16 -2.51,2.03 -3.94,2.6 -1.44,0.58 -2.99,0.88 -4.67,0.88 -1.66,0 -3.22,-0.29 -4.66,-0.88 -1.43,-0.58 -2.74,-1.45 -3.92,-2.59 -1.17,-1.15 -2.06,-2.45 -2.65,-3.89 -0.6,-1.44 -0.9,-2.99 -0.9,-4.63zm101.86 12.96l-47.74 -111.15 23.76 0 23.83 56.68c0.68,1.56 1.32,3.12 1.9,4.65l0.98 2.65 1.09 -2.92c0.53,-1.38 1.14,-2.83 1.8,-4.35l23.76 -56.71 23.67 0 -50.37 117.37 -2.67 -6.23zm59.08 -12.96c0,-1.66 0.29,-3.22 0.88,-4.67 0.58,-1.45 1.45,-2.78 2.6,-3.97 1.2,-1.21 2.52,-2.12 3.97,-2.72 1.45,-0.6 3.02,-0.91 4.68,-0.91 1.68,0 3.24,0.31 4.69,0.91 1.45,0.6 2.76,1.51 3.94,2.7 1.17,1.22 2.04,2.55 2.62,3.99 0.59,1.46 0.88,3.01 0.88,4.67 0,3.33 -1.18,6.18 -3.53,8.51 -1.2,1.16 -2.51,2.03 -3.94,2.6 -1.44,0.58 -2.99,0.88 -4.67,0.88 -1.66,0 -3.22,-0.29 -4.66,-0.88 -1.43,-0.58 -2.74,-1.45 -3.92,-2.59 -1.17,-1.15 -2.06,-2.45 -2.65,-3.89 -0.6,-1.44 -0.9,-2.99 -0.9,-4.63z"/>
   <path class="fil1" d="M240.29 107.68l35.53 121.06 16.15 53.62 14.49 48.63 1.94 6.16 -98.92 0 -31.3 -114.84 -66.78 100.86 -68.77 -95.53c-6.66,23.31 -13.94,51.9 -21.82,85.76 -2.83,12.99 -4.83,20.65 -6.11,23.09 -1.22,2.44 -3.77,3.66 -7.55,3.66 -4.77,0 -7.16,-1.61 -7.16,-4.83 0,-0.94 1.5,-6.38 4.55,-16.37l10.05 -34.64 17.54 -59.78 34.3 -116.85 89.26 128.5 84.59 -128.5z"/>
   <path id="_1" class="fil1" d="M770.91 222.97l0 -27.14 -0.5 -43.02 -0.22 -19.71 -0.28 -12.32c0,-5.83 2,-8.77 6,-8.77 2.39,0 4.05,0.67 4.94,2.05 0.94,1.33 1.39,3.89 1.39,7.72l0 2.27c-0.06,2.28 -0.11,6 -0.11,11.21l-0.5 54.79 -0.39 50.23 0.44 52.84 0.56 53.01c-22.32,-13.99 -55.01,-33.36 -97.97,-58 -43.02,-24.7 -77.88,-44.08 -104.52,-58.17l0.17 7.94 1.66 84.04 0.17 11.21c0,4.66 -2.17,7 -6.55,7 -4.5,0 -6.77,-2.89 -6.77,-8.6l0.17 -11.38 0.17 -18.37 0.67 -83.43 -1 -112.35c43.91,27.2 111.4,66.17 202.5,116.95z"/>
   <path id="_2" class="fil1" d="M953.37 126l-0.61 50.9 -0.39 48.35 0.33 111.9 -98.92 0 1 -129.67 -0.5 -44.07 -0.5 -37.41 -21.48 0.5 -30.75 0.67 -4.55 0.11c-5.22,0 -7.82,-1.94 -7.82,-5.89 0,-3.5 1.5,-5.44 4.55,-5.88 0.89,-0.22 3.5,-0.39 7.94,-0.5l199.38 0c6.94,0.11 11.05,0.44 12.38,1 2.17,0.84 3.22,2.72 3.22,5.55 0,3.72 -2.78,5.61 -8.33,5.61l-14.15 -0.5 -37.53 -0.67 -3.27 0z"/>
   <path id="_3" class="fil1" d="M1119.62 101.69l130.05 235.47 -112.79 0 -15.71 -29.64 -54.46 0 -48.01 -0.17 -8.1 -0.17 -10.83 19.76c-3.16,5.89 -5.38,9.6 -6.61,11.05 -1.27,1.44 -2.83,2.17 -4.72,2.17 -3.72,0 -5.55,-1.61 -5.55,-4.89 0,-1.39 1.05,-4.05 3.16,-7.88 2.11,-3.83 9.55,-16.54 22.26,-37.97l98.59 -165.74 12.71 -21.98zm-50.62 107.08l-28.25 47.57 -22.65 39.19 48.35 1 48.46 -1 -45.91 -86.76z"/>
   <path id="_4" class="fil1" d="M1354.71 115.01l-0.5 34.02 -0.5 54.12 0.11 39.58 0.55 83.76 11.66 0.17 69.38 -1.17 12.65 -0.17c6.38,0 9.55,1.94 9.55,5.83 0,3.44 -1.72,5.33 -5.16,5.66 -0.78,0.11 -3.27,0.22 -7.49,0.33l-189.84 0 0.39 -61.83 0.28 -37.91 0.33 -42.96 -0.5 -65.44 0.17 -13.99 98.92 0z"/>
   <path id="_5" class="fil1" d="M1566.87 186.28c-0.22,5 -0.33,11.05 -0.33,18.21l0 9.77 1 112.24 55.23 -0.55 39.08 -0.45c6.38,0 9.6,1.94 9.6,5.83 0,3.22 -1.61,5.05 -4.88,5.49 -0.78,0.11 -5.28,0.22 -13.49,0.33l-184.79 0 0.17 -8.44 0.17 -54.4 0.67 -58.23 -1 -101.08 171.96 0c7.66,0 12.05,0.17 13.16,0.5 2.5,0.61 3.72,2.44 3.72,5.5 0,3.77 -2.39,5.66 -7.16,5.66l-1.11 0 -81.32 -1 -1 50.29 17.76 0.17 57 -1 12.55 -0.17c4.61,0 7.61,0.39 9.05,1.17 1.5,0.78 2.22,2.33 2.22,4.66 0,4.33 -3.56,6.49 -10.72,6.49l-12.82 -0.39 -74.72 -0.61z"/>
   <path id="_6" class="fil1" d="M1829.54 203.05l3.39 5.27c21.81,34.92 36.91,58.73 45.35,71.49 8.38,12.71 20.93,30.7 37.52,54.01l-115.68 0 -56.18 -91.26c-17.6,20.76 -37.91,47.13 -61,79.16 -4.33,5.94 -7.6,9.93 -9.77,11.99 -2.17,2.05 -4.33,3.11 -6.49,3.11 -3.94,0 -5.89,-1.78 -5.89,-5.38 0,-1.39 0.39,-2.78 1.22,-4.11 0.83,-1.39 3.78,-5.27 8.88,-11.66l5.66 -7 60.78 -76.55 -77.88 -120.45 114.62 0 48.96 81.15c11.54,-14.1 28.03,-35.8 49.35,-65.05 6.27,-8.72 10.38,-14.1 12.27,-16.1 1.89,-2 3.94,-3 6.1,-3 1.72,0 3.22,0.61 4.55,1.78 1.28,1.22 1.94,2.61 1.94,4.22 0,2.05 -0.89,4.38 -2.66,6.83 -1.83,2.5 -8,10.27 -18.6,23.31l-46.46 58.23z"/>
   <path class="fil2" d="M450.37 0c-29.25,67.63 -25.69,104.89 14.88,144.25 10.69,-13.35 4.67,-42.45 -4.21,-58.35 123.41,38.13 137.56,248.85 -31.39,259.92 -157.65,10.33 -219.46,-228.28 20.71,-345.82zm-27.66 162.62c86.51,66.67 112.78,178.99 0,180.1 -96.95,0.95 -102.92,-101.75 0,-180.1z"/>
  </g>
 </g>
</svg>
