<?xml version="1.0" encoding="UTF-8"?> <svg xmlns="http://www.w3.org/2000/svg" xmlns:xlink="http://www.w3.org/1999/xlink" version="1.2" id="Laag_1" x="0px" y="0px" viewBox="0 0 595.3 599.9" overflow="visible" xml:space="preserve"> <g> <path fill="#333585" d="M304,202.1c23.2,0,44.4,7.9,61.5,21l99.8-129.8C420,58.1,363.3,37.2,301.6,37.2 c-48.3,0-93.7,12.8-132.7,35.3l82,144.8C266.3,207.8,284.5,202.1,304,202.1z"></path> <path fill="#28285B" d="M203,303.1c0-36.3,19.2-68,47.9-85.8l-82-144.8c-80,46-133.8,132.3-133.8,231.2H203 C203,303.5,203,303.3,203,303.1z"></path> <path fill="#AADAE2" d="M203,303.8H35.1c0,46.2,11.8,89.7,32.5,127.6c18.1,33.1,42.9,61.9,72.8,84.5l102.1-132.9 C218.7,364.7,203.2,336.1,203,303.8z"></path> <path fill="#76C7CD" d="M304,404.1c-23.2,0-44.4-7.9-61.5-21L140.4,515.9c44.7,34.1,100.7,54.4,161.2,54.4 c47.2,0,91.5-12.2,129.9-33.8l-81.4-143.7C336.4,400,320.6,404.1,304,404.1z"></path> <path fill="#0DAEBB" d="M404.9,303.8c-0.2,38.8-22.4,72.3-54.7,89l81.4,143.7c46.8-26.1,84.8-65.9,108.7-114 c17.8-35.7,27.9-76,27.9-118.7H404.9z"></path> <path fill="#5F5894" d="M404.9,303.1c0,0.2,0,0.4,0,0.6h163.3c0-85.5-40.3-161.7-103-210.5l-99.8,129.8 C389.4,241.6,404.9,270.5,404.9,303.1z"></path> </g> <g id="destillatie_00000005976072567296357580000001827355755578789310_"> <path fill="#2C2968" d="M129.2,324.9c-2.6,0-4.5,0.7-5.7,2.1c-0.9,1-1.1,2.1-1.2,2.9c-2.1,0.2-4,0.9-5,1.4 c-0.8,0.4-1.4,1.3-1.4,2.2v10.4h-0.3c-0.6,0-1,0.5-1,1c0,0.6,0.5,1,1,1h0.3v11.8h-0.3c-0.6,0-1,0.5-1,1s0.5,1,1,1h0.3v11.8h-0.3 c-0.6,0-1,0.5-1,1c0,0.6,0.5,1,1,1h0.3v14.4h14.7v-14.4h0.1c0.6,0,1-0.5,1-1c0-0.6-0.5-1-1-1h-0.1v-11.8h0.1c0.6,0,1-0.5,1-1 s-0.5-1-1-1h-0.1v-11.8h0.1c0.6,0,1-0.5,1-1c0-0.6-0.5-1-1-1h-0.1v-10.5c0-0.8-0.5-1.6-1.2-2c-1-0.5-2.9-1.2-5-1.5 c0.1-0.5,0.2-1.1,0.7-1.6c0.8-0.9,2.2-1.3,4.1-1.3c1.3,0,2.3,0.4,3,1.1c1.2,1.2,1.2,3,1.2,3v56.3c0,0.6,0.5,1,1,1s1-0.5,1-1V331 c0-0.1,0-2.7-1.8-4.5C132.6,325.4,131.1,324.9,129.2,324.9z M128.6,386H118v-12.3h10.5V386z M128.6,371.6H118v-11.8h10.5V371.6z M128.6,357.7H118v-11.8h10.5V357.7z M128.6,333.3v10.5H118v-10.4c0-0.1,0.1-0.2,0.2-0.3c1-0.5,3-1.3,5.1-1.3 C125.4,331.9,127.5,332.8,128.6,333.3C128.6,333.3,128.6,333.3,128.6,333.3z"></path> <path fill="#2C2968" d="M158.7,326.5c-1.1-1.1-2.6-1.7-4.5-1.7c-2.6,0-4.5,0.7-5.7,2.1c-0.9,1-1.1,2.1-1.2,2.9 c-2.1,0.2-4,0.9-5,1.4c-0.8,0.4-1.4,1.3-1.4,2.2v10.4h-0.3c-0.6,0-1,0.5-1,1c0,0.6,0.5,1,1,1h0.3v11.8h-0.3c-0.6,0-1,0.5-1,1 s0.5,1,1,1h0.3v11.8h-0.3c-0.6,0-1,0.5-1,1c0,0.6,0.5,1,1,1h0.3v14.4h14.7v-14.4h0.1c0.6,0,1-0.5,1-1c0-0.6-0.5-1-1-1h-0.1v-11.8 h0.1c0.6,0,1-0.5,1-1s-0.5-1-1-1h-0.1v-11.8h0.1c0.6,0,1-0.5,1-1c0-0.6-0.5-1-1-1h-0.1v-10.5c0-0.8-0.5-1.6-1.2-2 c-1-0.5-2.9-1.2-5-1.5c0-0.4,0.2-1.1,0.7-1.6c0.8-0.9,2.2-1.3,4.2-1.3c1.3,0,2.3,0.4,3,1.1c1.2,1.2,1.2,3,1.2,3v56.1 c0,0.6,0.5,1,1,1s1-0.5,1-1V331C160.5,330.9,160.5,328.3,158.7,326.5z M153.6,386h-10.5v-12.3h10.5V386z M153.6,371.6h-10.5v-11.8 h10.5V371.6z M153.6,357.7h-10.5v-11.8h10.5V357.7z M153.6,333.3v10.5h-10.5v-10.4c0-0.1,0.1-0.2,0.2-0.3c1-0.5,3.1-1.3,5.1-1.3 C150.4,331.9,152.5,332.8,153.6,333.3C153.6,333.3,153.6,333.3,153.6,333.3z"></path> </g> <g> <path fill="#2C2968" d="M89.7,396.7h5.7c3.1,0,5.1,1.8,5.1,4.7c0,2.8-2,4.7-5.1,4.7h-2.7v4.7h-3V396.7z M92.7,399.2v4.3h2.4 c1.4,0,2.3-0.8,2.3-2.2c0-1.4-0.9-2.2-2.3-2.2H92.7z"></path> <path fill="#2C2968" d="M108.3,400.5v2.6h-1.1c-1.7,0-2.3,1.1-2.3,2.7v5.1H102v-10.4h2.6l0.3,1.6c0.6-0.9,1.4-1.6,3-1.6H108.3z"></path> <path fill="#2C2968" d="M108.9,405.6c0-3.2,2.2-5.3,5.5-5.3c3.3,0,5.5,2.1,5.5,5.3c0,3.2-2.2,5.3-5.5,5.3 C111,410.9,108.9,408.8,108.9,405.6z M116.9,405.6c0-1.8-1-3-2.6-3c-1.6,0-2.6,1.2-2.6,3c0,1.8,1,3,2.6,3 C115.9,408.6,116.9,407.4,116.9,405.6z"></path> <path fill="#2C2968" d="M121,405.6c0-3.2,2.1-5.3,5.4-5.3c2.8,0,4.6,1.5,5,4h-3c-0.2-1-0.9-1.7-2.1-1.7c-1.5,0-2.4,1.2-2.4,3 c0,1.8,0.9,3,2.4,3c1.1,0,1.9-0.7,2.1-1.7h3c-0.4,2.5-2.3,4-5.1,4C123,410.9,121,408.9,121,405.6z"></path> <path fill="#2C2968" d="M132.4,405.7c0-3.2,2.1-5.3,5.3-5.3c3.1,0,5.2,1.9,5.2,5c0,0.3,0,0.6-0.1,1h-7.5v0.1c0.1,1.5,1,2.4,2.4,2.4 c1.1,0,2-0.5,2.2-1.5h2.8c-0.3,2-2.1,3.6-4.9,3.6C134.5,410.9,132.4,408.9,132.4,405.7z M140.1,404.4c-0.2-1.3-1.1-2-2.4-2 c-1.2,0-2.2,0.7-2.3,2H140.1z"></path> <path fill="#2C2968" d="M146.7,407.4c0.1,0.9,0.9,1.5,2.3,1.5c1.2,0,1.9-0.4,1.9-1.1c0-0.8-0.7-0.9-2.4-1.1c-2.4-0.3-4.3-0.8-4.3-3 c0-2.1,1.8-3.4,4.5-3.4c2.8,0,4.7,1.2,4.8,3.3h-2.7c-0.1-0.8-0.9-1.3-2-1.3c-1.1,0-1.8,0.4-1.8,1.1c0,0.8,0.9,0.9,2.4,1 c2.4,0.2,4.4,0.8,4.4,3.1c0,2.1-1.9,3.4-4.7,3.4c-2.9,0-4.8-1.4-5-3.6H146.7z"></path> <path fill="#2C2968" d="M157.2,407.4c0.1,0.9,0.9,1.5,2.3,1.5c1.2,0,1.9-0.4,1.9-1.1c0-0.8-0.7-0.9-2.4-1.1c-2.4-0.3-4.3-0.8-4.3-3 c0-2.1,1.8-3.4,4.5-3.4c2.8,0,4.7,1.2,4.8,3.3h-2.7c-0.1-0.8-0.9-1.3-2-1.3c-1.1,0-1.8,0.4-1.8,1.1c0,0.8,0.9,0.9,2.4,1 c2.4,0.2,4.4,0.8,4.4,3.1c0,2.1-1.9,3.4-4.7,3.4c-2.9,0-4.8-1.4-5-3.6H157.2z"></path> <path fill="#2C2968" d="M165.4,397.8c0-0.9,0.7-1.6,1.7-1.6s1.7,0.7,1.7,1.6c0,0.9-0.7,1.6-1.7,1.6S165.4,398.7,165.4,397.8z M165.6,400.5h2.9v10.4h-2.9V400.5z"></path> <path fill="#2C2968" d="M180.6,405.1v5.7h-2.8v-5.5c0-1.8-0.7-2.7-2.1-2.7c-1.5,0-2.3,1-2.3,2.8v5.3h-2.8v-10.4h2.5l0.3,1.3 c0.7-0.8,1.6-1.4,3.2-1.4C178.6,400.3,180.6,401.5,180.6,405.1z"></path> <path fill="#2C2968" d="M190.2,400.5h2.5v10.1c0,2.6-1.6,4.5-5.5,4.5c-2.9,0-4.9-1.3-5-3.7h2.9c0.3,1,1,1.6,2.4,1.6 c1.6,0,2.5-0.8,2.5-2.4v-1.1c-0.7,0.9-1.7,1.4-3.2,1.4c-2.8,0-4.8-2-4.8-5.2c0-3.2,2-5.2,4.8-5.2c1.5,0,2.5,0.7,3.2,1.6 L190.2,400.5z M189.9,405.6c0-1.7-1-3-2.5-3s-2.5,1.2-2.5,2.9s1,2.9,2.5,2.9S189.9,407.3,189.9,405.6z"></path> <path fill="#2C2968" d="M100.9,426.9c0.3,0.4,0.6,0.4,1,0.4h1.4v2.4h-1.9c-1,0-2-0.2-2.8-1l-0.2-0.2c-1.1,0.9-2.3,1.4-3.8,1.4 c-2.8,0-5.1-1.2-5-3.8c0-1.3,0.7-2.8,2.9-3.9c-0.9-1.1-1.1-1.9-1.1-3c0-2.1,1.8-3.6,4.4-3.6c2.2,0,4,1.4,4,3.3 c0,1.4-0.6,2.6-3.2,3.7l0,0l2.3,2.4l1.8-2.8h2.6l-2.9,4.4L100.9,426.9z M97,426.8l-3.2-3.4c-1,0.6-1.3,1.3-1.3,2.2 c0,1.2,0.9,1.9,2.3,1.9C95.7,427.5,96.4,427.3,97,426.8z M94.3,418.9c0,0.8,0.3,1.3,1,2c1.4-0.6,1.9-1.3,1.9-2.2 c0-0.8-0.6-1.4-1.4-1.4C94.9,417.4,94.3,418.1,94.3,418.9z"></path> <path fill="#2C2968" d="M117,419.3v2.6h-1.1c-1.7,0-2.3,1.1-2.3,2.7v5.1h-2.8v-10.4h2.6l0.3,1.6c0.6-0.9,1.4-1.6,3-1.6H117z"></path> <path fill="#2C2968" d="M117.5,424.5c0-3.2,2.1-5.3,5.3-5.3c3.1,0,5.2,1.9,5.2,5c0,0.3,0,0.6-0.1,1h-7.5v0.1c0.1,1.5,1,2.4,2.4,2.4 c1.1,0,2-0.5,2.2-1.5h2.8c-0.3,2-2.1,3.6-4.9,3.6C119.6,429.7,117.5,427.7,117.5,424.5z M125.2,423.2c-0.2-1.3-1.1-2-2.4-2 c-1.2,0-2.2,0.7-2.3,2H125.2z"></path> <path fill="#2C2968" d="M139.6,419.3v10.4h-2.8v-8h-3.5v8h-2.8v-8h-1.7v-2.4h1.7v-0.9c0-1.8,1-2.8,3.1-2.8h2v2.4H134 c-0.6,0-0.8,0.3-0.8,0.8v0.5H139.6z M136.5,416.6c0-0.9,0.7-1.6,1.7-1.6s1.6,0.7,1.6,1.6c0,0.9-0.7,1.6-1.6,1.6 S136.5,417.5,136.5,416.6z"></path> <path fill="#2C2968" d="M151.6,423.9v5.7h-2.8v-5.5c0-1.8-0.7-2.7-2.1-2.7c-1.5,0-2.3,1-2.3,2.8v5.3h-2.8v-10.4h2.5l0.3,1.3 c0.7-0.8,1.6-1.4,3.2-1.4C149.7,419.1,151.6,420.3,151.6,423.9z"></path> <path fill="#2C2968" d="M153.2,416.6c0-0.9,0.7-1.6,1.7-1.6s1.7,0.7,1.7,1.6c0,0.9-0.7,1.6-1.7,1.6S153.2,417.5,153.2,416.6z M153.4,419.3h2.9v10.4h-2.9V419.3z"></path> <path fill="#2C2968" d="M168.3,423.9v5.7h-2.8v-5.5c0-1.8-0.7-2.7-2.1-2.7c-1.5,0-2.3,1-2.3,2.8v5.3h-2.8v-10.4h2.5l0.3,1.3 c0.7-0.8,1.6-1.4,3.2-1.4C166.4,419.1,168.3,420.3,168.3,423.9z"></path> <path fill="#2C2968" d="M178,419.3h2.5v10.1c0,2.6-1.6,4.5-5.5,4.5c-2.9,0-4.9-1.3-5-3.7h2.9c0.3,1,1,1.6,2.4,1.6 c1.6,0,2.5-0.8,2.5-2.4v-1.1c-0.7,0.9-1.7,1.4-3.2,1.4c-2.8,0-4.8-2-4.8-5.2c0-3.2,2-5.2,4.8-5.2c1.5,0,2.5,0.7,3.2,1.6L178,419.3z M177.7,424.4c0-1.7-1-3-2.5-3s-2.5,1.2-2.5,2.9s1,2.9,2.5,2.9S177.7,426.1,177.7,424.4z"></path> </g> <g> <path fill="#FFFFFF" d="M87.2,216.2h5.4c3.3,0,5.2,1.4,5.2,3.7c0,1.8-1,2.8-2.7,3.1c1.9,0.2,3.2,1.2,3.2,3.2c0,2.5-1.9,4-5.4,4 h-5.6V216.2z M90.2,218.6v3.4h2.4c1.3,0,2.1-0.7,2.1-1.7c0-1-0.7-1.7-2.1-1.7H90.2z M90.2,224.4v3.6h2.6c1.5,0,2.3-0.7,2.3-1.8 c0-1.1-0.8-1.8-2.3-1.8H90.2z"></path> <path fill="#FFFFFF" d="M99.8,216.2h2.8v14.1h-2.8V216.2z"></path> <path fill="#FFFFFF" d="M104.2,225.2c0-3.2,2.1-5.3,5.3-5.3c3.1,0,5.2,1.9,5.2,5c0,0.3,0,0.6-0.1,1h-7.5v0.1c0.1,1.5,1,2.4,2.4,2.4 c1.1,0,2-0.5,2.2-1.5h2.8c-0.3,2-2.1,3.6-4.9,3.6C106.3,230.5,104.2,228.4,104.2,225.2z M111.9,223.9c-0.2-1.3-1.1-2-2.4-2 c-1.2,0-2.2,0.7-2.3,2H111.9z"></path> <path fill="#FFFFFF" d="M126.4,224.6v5.7h-2.8v-5.5c0-1.8-0.7-2.7-2.1-2.7c-1.5,0-2.3,1-2.3,2.8v5.3h-2.8V220h2.5l0.3,1.3 c0.7-0.8,1.6-1.4,3.2-1.4C124.5,219.9,126.4,221,126.4,224.6z"></path> <path fill="#FFFFFF" d="M135.7,216.2h2.8v14.1h-2.5l-0.3-1.4c-0.7,0.9-1.7,1.6-3.2,1.6c-2.8,0-4.8-2-4.8-5.3c0-3.2,2-5.3,4.8-5.3 c1.4,0,2.5,0.6,3.1,1.4V216.2z M135.7,225.2c0-1.8-1-3-2.5-3s-2.5,1.2-2.5,3c0,1.8,1,3,2.5,3S135.7,226.9,135.7,225.2z"></path> <path fill="#FFFFFF" d="M140.3,217.3c0-0.9,0.7-1.6,1.7-1.6s1.7,0.7,1.7,1.6c0,0.9-0.7,1.6-1.7,1.6S140.3,218.2,140.3,217.3z M140.5,220h2.9v10.4h-2.9V220z"></path> <path fill="#FFFFFF" d="M155.4,224.6v5.7h-2.8v-5.5c0-1.8-0.7-2.7-2.1-2.7c-1.5,0-2.3,1-2.3,2.8v5.3h-2.8V220h2.5l0.3,1.3 c0.7-0.8,1.6-1.4,3.2-1.4C153.5,219.9,155.4,221,155.4,224.6z"></path> <path fill="#FFFFFF" d="M165.1,220h2.5V230c0,2.6-1.6,4.5-5.5,4.5c-2.9,0-4.9-1.3-5-3.7h2.9c0.3,1,1,1.6,2.4,1.6 c1.6,0,2.5-0.8,2.5-2.4v-1.1c-0.7,0.9-1.7,1.4-3.2,1.4c-2.8,0-4.8-2-4.8-5.2c0-3.2,2-5.2,4.8-5.2c1.5,0,2.5,0.7,3.2,1.6L165.1,220z M164.8,225.1c0-1.7-1-3-2.5-3s-2.5,1.2-2.5,2.9c0,1.7,1,2.9,2.5,2.9S164.8,226.8,164.8,225.1z"></path> <path fill="#FFFFFF" d="M98.4,246.4c0.3,0.4,0.6,0.4,1,0.4h1.4v2.4h-1.9c-1,0-2-0.2-2.8-1l-0.2-0.2c-1.1,0.9-2.3,1.4-3.8,1.4 c-2.8,0-5.1-1.2-5-3.8c0-1.3,0.7-2.8,2.9-3.9c-0.9-1.1-1.1-1.9-1.1-3c0-2.1,1.8-3.6,4.4-3.6c2.2,0,4,1.4,4,3.3 c0,1.4-0.6,2.6-3.2,3.7l0,0l2.3,2.4l1.8-2.8h2.6l-2.9,4.4L98.4,246.4z M94.5,246.3l-3.2-3.4c-1,0.6-1.3,1.3-1.3,2.2 c0,1.2,0.9,1.9,2.3,1.9C93.2,247.1,93.8,246.8,94.5,246.3z M91.7,238.4c0,0.8,0.3,1.3,1,2c1.4-0.6,1.9-1.3,1.9-2.2 c0-0.8-0.6-1.4-1.4-1.4C92.4,236.9,91.7,237.6,91.7,238.4z"></path> <path fill="#FFFFFF" d="M118.3,243.4v5.7h-2.8v-5.5c0-1.7-0.7-2.6-2.1-2.6c-1.5,0-2.3,1-2.3,2.8v5.3h-2.8V235h2.8v5 c0.7-0.8,1.6-1.4,3.1-1.4C116.4,238.6,118.3,239.9,118.3,243.4z"></path> <path fill="#FFFFFF" d="M119.6,244c0-3.2,2.1-5.3,5.3-5.3c3.1,0,5.2,1.9,5.2,5c0,0.3,0,0.6-0.1,1h-7.5v0.1c0.1,1.5,1,2.4,2.4,2.4 c1.1,0,2-0.5,2.2-1.5h2.8c-0.3,2-2.1,3.6-4.9,3.6C121.7,249.3,119.6,247.2,119.6,244z M127.3,242.7c-0.2-1.3-1.1-2-2.4-2 c-1.2,0-2.2,0.7-2.3,2H127.3z"></path> <path fill="#FFFFFF" d="M141.9,246.7v2.4h-1.5c-1.5,0-1.9-0.7-1.9-1.7c-0.7,1.1-1.8,1.8-3.4,1.8c-2.2,0-3.9-1.1-3.9-3 c0-2.2,1.7-3.4,4.8-3.4h2.1v-0.5c0-0.9-0.7-1.5-1.9-1.5c-1.1,0-1.9,0.5-2,1.3h-2.7c0.2-2,2.1-3.3,4.8-3.3c2.9,0,4.6,1.3,4.6,3.8 v3.7c0,0.5,0.2,0.6,0.7,0.6H141.9z M138.1,244.7h-2.1c-1.2,0-1.9,0.5-1.9,1.4c0,0.7,0.6,1.2,1.5,1.2c1.5,0,2.4-0.9,2.4-2.3V244.7z"></path> <path fill="#FFFFFF" d="M143.8,241.2h-1.7v-2.4h1.7v-2.9h2.8v2.9h2.4v2.4h-2.4v4.5c0,0.7,0.3,1,1,1h1.4v2.4h-2.3c-2,0-3-1-3-3 V241.2z"></path> <path fill="#FFFFFF" d="M150.2,236.1c0-0.9,0.7-1.6,1.7-1.6s1.7,0.7,1.7,1.6c0,0.9-0.7,1.6-1.7,1.6S150.2,237,150.2,236.1z M150.4,238.8h2.9v10.4h-2.9V238.8z"></path> <path fill="#FFFFFF" d="M165.3,243.4v5.7h-2.8v-5.5c0-1.8-0.7-2.7-2.1-2.7c-1.5,0-2.3,1-2.3,2.8v5.3h-2.8v-10.4h2.5l0.3,1.3 c0.7-0.8,1.6-1.4,3.2-1.4C163.4,238.6,165.3,239.8,165.3,243.4z"></path> <path fill="#FFFFFF" d="M175,238.8h2.5v10.1c0,2.6-1.6,4.5-5.5,4.5c-2.9,0-4.9-1.3-5-3.7h2.9c0.3,1,1,1.6,2.4,1.6 c1.6,0,2.5-0.8,2.5-2.4v-1.1c-0.7,0.9-1.7,1.4-3.2,1.4c-2.8,0-4.8-2-4.8-5.2c0-3.2,2-5.2,4.8-5.2c1.5,0,2.5,0.7,3.2,1.6L175,238.8z M174.7,243.9c0-1.7-1-3-2.5-3s-2.5,1.2-2.5,2.9c0,1.7,1,2.9,2.5,2.9S174.7,245.6,174.7,243.9z"></path> </g> <g> <path fill="#2E2B68" d="M260.4,519.6c0.1,1.4,1.2,2.3,2.9,2.3c1.4,0,2.4-0.6,2.4-1.7c0-1.2-1.1-1.4-3.5-1.9 c-2.4-0.4-4.5-1.2-4.5-4.1c0-2.5,2.1-4.3,5.3-4.3c3.3,0,5.4,1.7,5.5,4.4h-3c-0.1-1.2-1-2-2.5-2c-1.3,0-2.2,0.5-2.2,1.6 c0,1.1,1.1,1.4,3.4,1.8c2.4,0.4,4.6,1.2,4.5,4c0,2.6-2.2,4.5-5.5,4.5c-3.6,0-5.8-1.9-5.8-4.8L260.4,519.6z"></path> <path fill="#2E2B68" d="M271.2,516.2h-1.7v-2.4h1.7v-2.9h2.8v2.9h2.4v2.4H274v4.5c0,0.7,0.3,1,1,1h1.4v2.4h-2.3c-2,0-3-1-3-3V516.2 z"></path> <path fill="#2E2B68" d="M277.2,519c0-3.2,2.2-5.3,5.5-5.3c3.3,0,5.5,2.1,5.5,5.3c0,3.2-2.2,5.3-5.5,5.3 C279.3,524.3,277.2,522.2,277.2,519z M285.2,519c0-1.8-1-3-2.6-3c-1.6,0-2.6,1.2-2.6,3c0,1.8,1,3,2.6,3 C284.2,522,285.2,520.7,285.2,519z"></path> <path fill="#2E2B68" d="M296,513.8v2.6h-1.1c-1.7,0-2.3,1.1-2.3,2.7v5.1h-2.8v-10.4h2.6l0.3,1.6c0.6-0.9,1.4-1.6,3-1.6H296z"></path> <path fill="#2E2B68" d="M307.2,521.8v2.4h-1.5c-1.5,0-1.9-0.7-1.9-1.7c-0.7,1.1-1.8,1.8-3.4,1.8c-2.2,0-3.9-1.1-3.9-3 c0-2.2,1.7-3.4,4.8-3.4h2.1v-0.5c0-0.9-0.7-1.5-1.9-1.5c-1.1,0-1.9,0.5-2,1.3h-2.7c0.2-2,2.1-3.3,4.8-3.3c2.9,0,4.6,1.3,4.6,3.8 v3.7c0,0.5,0.2,0.6,0.7,0.6H307.2z M303.4,519.7h-2.1c-1.2,0-1.9,0.5-1.9,1.4c0,0.7,0.6,1.2,1.5,1.2c1.5,0,2.4-0.9,2.4-2.3V519.7z"></path> <path fill="#2E2B68" d="M316.2,513.8h2.5v10.1c0,2.6-1.6,4.5-5.5,4.5c-2.9,0-4.9-1.3-5-3.7h2.9c0.3,1,1,1.6,2.4,1.6 c1.6,0,2.5-0.8,2.5-2.4v-1.1c-0.7,0.9-1.7,1.4-3.2,1.4c-2.8,0-4.8-2-4.8-5.2c0-3.2,2-5.2,4.8-5.2c1.5,0,2.5,0.7,3.2,1.6 L316.2,513.8z M315.9,518.9c0-1.7-1-3-2.5-3c-1.6,0-2.5,1.2-2.5,2.9s1,2.9,2.5,2.9C314.9,521.8,315.9,520.6,315.9,518.9z"></path> <path fill="#2E2B68" d="M320.3,519c0-3.2,2.1-5.3,5.3-5.3c3.1,0,5.2,1.9,5.2,5c0,0.3,0,0.6-0.1,1h-7.5v0.1c0.1,1.5,1,2.4,2.4,2.4 c1.1,0,2-0.5,2.2-1.5h2.8c-0.3,2-2.1,3.6-4.9,3.6C322.3,524.3,320.3,522.2,320.3,519z M328,517.8c-0.2-1.3-1.1-2-2.4-2 c-1.2,0-2.2,0.7-2.3,2H328z"></path> </g> <g> <path id="tank_00000152245462468160657400000012812394979441179052_" fill="#2E2B68" d="M324.1,447.1c0-0.1,0-0.1,0-0.2 c0-6.1-19.5-7.8-29.8-7.8c-10.3,0-29.8,1.6-29.8,7.8c0,0.2,0,0.5,0.1,0.7v43.8c0,1.7,1,3.1,2.6,3.7c3.8,1.3,12.2,3.6,26.3,3.9 c0.6,0,1.1,0,1.7,0c13.5,0,22.8-3.4,26.3-5c1.4-0.6,2.3-2,2.4-3.6L324.1,447.1L324.1,447.1z M294.4,441.6c17.7,0,27.4,3.5,27.4,5.3 c0,1.8-9.7,5.3-27.4,5.3c-16.7,0-26.2-3.1-27.3-5v-0.4H267C267.2,445.1,276.8,441.6,294.4,441.6z M274.1,466.3h9.9v4.5h-9.9V466.3z M274.1,473.2h9.9v4.4h-9.9V473.2z M274.1,480.1h9.9v4.8h-9.9V480.1z M284,463.8h-9.9v-4.3h9.9V463.8z M274.1,487.3h9.9v8.7 c-4-0.4-7.3-1-9.9-1.5V487.3z M284,457.1h-9.9v-4.3c3,0.7,6.5,1.1,9.9,1.4V457.1z M267.1,491.4v-41c1.2,0.7,2.7,1.3,4.5,1.8v41.7 c-1.5-0.4-2.6-0.8-3.5-1.1C267.5,492.6,267.1,492,267.1,491.4z M321.5,490.5c0,0.6-0.4,1.1-0.9,1.3c-3.5,1.5-13,5-26.9,4.8 c-2.6-0.1-5-0.2-7.2-0.3v-41.8c2.9,0.2,5.6,0.3,7.9,0.3c8.1,0,21.8-1,27.4-4.4L321.5,490.5z"></path> </g> <g> <path fill="#FFFFFF" d="M386.6,413.3h11.2v2.6h-4.1v11.5h-3v-11.5h-4.1V413.3z"></path> <path fill="#FFFFFF" d="M404.6,417.1v2.6h-1.1c-1.7,0-2.3,1.1-2.3,2.7v5.1h-2.8v-10.4h2.6l0.3,1.6c0.6-0.9,1.4-1.6,3-1.6H404.6z"></path> <path fill="#FFFFFF" d="M415.8,425.1v2.4h-1.5c-1.5,0-1.9-0.7-1.9-1.7c-0.7,1.1-1.8,1.8-3.4,1.8c-2.2,0-3.8-1.1-3.8-3 c0-2.2,1.7-3.4,4.8-3.4h2.1v-0.5c0-0.9-0.7-1.5-1.9-1.5c-1.1,0-1.9,0.5-2,1.3h-2.7c0.2-2,2.1-3.3,4.8-3.3c2.9,0,4.6,1.3,4.6,3.8 v3.7c0,0.5,0.2,0.6,0.7,0.6H415.8z M412,423H410c-1.2,0-1.9,0.5-1.9,1.4c0,0.7,0.6,1.2,1.5,1.2c1.5,0,2.4-0.9,2.4-2.3V423z"></path> <path fill="#FFFFFF" d="M427,421.7v5.7h-2.8V422c0-1.8-0.7-2.7-2.1-2.7c-1.5,0-2.3,1-2.3,2.8v5.3h-2.8v-10.4h2.5l0.3,1.3 c0.7-0.8,1.6-1.4,3.2-1.4C425.1,417,427,418.2,427,421.7z"></path> <path fill="#FFFFFF" d="M431.1,424c0.1,0.9,0.9,1.5,2.3,1.5c1.2,0,1.9-0.4,1.9-1.1c0-0.8-0.7-0.9-2.4-1.1c-2.4-0.3-4.3-0.8-4.3-3 c0-2.1,1.8-3.4,4.5-3.4c2.8,0,4.7,1.2,4.8,3.3h-2.7c-0.1-0.8-0.9-1.3-2-1.3c-1.1,0-1.8,0.4-1.8,1.1c0,0.8,0.9,0.9,2.4,1 c2.4,0.2,4.4,0.8,4.4,3.1c0,2.1-1.9,3.4-4.7,3.4c-2.9,0-4.8-1.4-5-3.6H431.1z"></path> <path fill="#FFFFFF" d="M450.3,422.3c0,3.2-2,5.3-4.8,5.3c-1.4,0-2.5-0.6-3.1-1.4v5.3h-2.8v-14.4h2.5l0.3,1.4 c0.7-0.9,1.7-1.6,3.2-1.6C448.3,417,450.3,419,450.3,422.3z M447.4,422.3c0-1.8-1-3-2.6-3c-1.6,0-2.5,1.2-2.5,3c0,1.8,1,3,2.5,3 C446.4,425.3,447.4,424,447.4,422.3z"></path> <path fill="#FFFFFF" d="M451.5,422.3c0-3.2,2.2-5.3,5.5-5.3s5.5,2.1,5.5,5.3c0,3.2-2.2,5.3-5.5,5.3S451.5,425.5,451.5,422.3z M459.5,422.3c0-1.8-1-3-2.6-3c-1.6,0-2.6,1.2-2.6,3c0,1.8,1,3,2.6,3C458.5,425.3,459.5,424,459.5,422.3z"></path> <path fill="#FFFFFF" d="M470.3,417.1v2.6h-1.1c-1.7,0-2.3,1.1-2.3,2.7v5.1H464v-10.4h2.6l0.3,1.6c0.6-0.9,1.4-1.6,3-1.6H470.3z"></path> <path fill="#FFFFFF" d="M472.7,419.5H471v-2.4h1.7v-2.9h2.8v2.9h2.4v2.4h-2.4v4.5c0,0.7,0.3,1,1,1h1.4v2.4h-2.3c-2,0-3-1-3-3V419.5 z"></path> <path fill="#FFFFFF" d="M489.5,425.1v2.4H488c-1.5,0-1.9-0.7-1.9-1.7c-0.7,1.1-1.8,1.8-3.4,1.8c-2.2,0-3.8-1.1-3.8-3 c0-2.2,1.7-3.4,4.8-3.4h2.1v-0.5c0-0.9-0.7-1.5-1.9-1.5c-1.1,0-1.9,0.5-2,1.3h-2.7c0.2-2,2.1-3.3,4.8-3.3c2.9,0,4.6,1.3,4.6,3.8 v3.7c0,0.5,0.2,0.6,0.7,0.6H489.5z M485.7,423h-2.1c-1.2,0-1.9,0.5-1.9,1.4c0,0.7,0.6,1.2,1.5,1.2c1.5,0,2.4-0.9,2.4-2.3V423z"></path> <path fill="#FFFFFF" d="M491.3,419.5h-1.7v-2.4h1.7v-2.9h2.8v2.9h2.4v2.4h-2.4v4.5c0,0.7,0.3,1,1,1h1.4v2.4h-2.3c-2,0-3-1-3-3 V419.5z"></path> <path fill="#FFFFFF" d="M497.7,414.4c0-0.9,0.7-1.6,1.7-1.6c0.9,0,1.7,0.7,1.7,1.6c0,0.9-0.7,1.6-1.7,1.6 C498.4,416,497.7,415.3,497.7,414.4z M497.9,417.1h2.9v10.4h-2.9V417.1z"></path> <path fill="#FFFFFF" d="M502.3,422.3c0-3.2,2.2-5.3,5.5-5.3s5.5,2.1,5.5,5.3c0,3.2-2.2,5.3-5.5,5.3S502.3,425.5,502.3,422.3z M510.4,422.3c0-1.8-1-3-2.6-3c-1.6,0-2.6,1.2-2.6,3c0,1.8,1,3,2.6,3C509.4,425.3,510.4,424,510.4,422.3z"></path> <path fill="#FFFFFF" d="M524.9,421.7v5.7h-2.8V422c0-1.8-0.7-2.7-2.1-2.7c-1.5,0-2.3,1-2.3,2.8v5.3h-2.8v-10.4h2.5l0.3,1.3 c0.7-0.8,1.6-1.4,3.2-1.4C523,417,524.9,418.2,524.9,421.7z"></path> </g> <g> <path fill="#FFFFFF" d="M494,392.9c-3.5,0-6.3-2.8-6.3-6.3c0-0.2-0.1-0.3-0.3-0.3H465c-0.2,0-0.3,0.1-0.3,0.3 c0,3.5-2.8,6.3-6.3,6.3c-3.5,0-6.3-2.8-6.3-6.3c0-0.2-0.1-0.3-0.3-0.3h-2.6c-0.2,0-0.3,0.1-0.3,0.3c0,3.5-2.8,6.3-6.3,6.3 c-3.5,0-6.3-2.8-6.3-6.3c0-0.2-0.1-0.3-0.3-0.3h-6.6c-0.6,0-1-0.5-1-1v-9.2c0-0.6,0.5-1,1-1h3.2c0.1,0,0.2-0.1,0.3-0.2 c0-0.1,0-0.2-0.1-0.3c-2.9-2.7-4.5-6.4-4.4-10.3c0-7.1,4.9-12.9,10.9-12.9h17.8c0.2,0,0.3-0.1,0.3-0.3v-2.6c0-0.2-0.1-0.3-0.3-0.3 c-0.6,0-1-0.5-1-1s0.5-1,1-1h11.9c0.6,0,1,0.5,1,1s-0.5,1-1,1c-0.2,0-0.3,0.1-0.3,0.3v2.7c0,0.1,0.1,0.3,0.3,0.3 c5.8,0.4,10.3,6,10.3,12.9c0.1,3.9-1.5,7.7-4.4,10.3c-0.1,0.1-0.1,0.2-0.1,0.3c0,0.1,0.1,0.2,0.3,0.2h7.1c0.2,0,0.3-0.1,0.3-0.3 v-21.1c0-0.6,0.5-1,1-1h8.7c1.3,0.1,2.5,0.6,3.4,1.4c0,0,0,0.1,0.1,0.1l10,12.9c0,0,0,0,0,0c0.8,0.8,1.2,1.9,1.2,3v12.5 c0,0,0,0,0,0c0.1,1-0.2,2-1,2.7c-0.6,0.6-1.5,1-2.3,1c0,0,0,0,0,0c-0.1,0-0.2,0-0.3,0c0,0,0,0,0,0h-2.6c-0.2,0-0.3,0.1-0.3,0.3 C500.3,390.1,497.4,392.9,494,392.9z M494,382.4c-2.3,0-4.2,1.9-4.2,4.2s1.9,4.2,4.2,4.2s4.2-1.9,4.2-4.2S496.3,382.4,494,382.4z M458.4,382.4c-2.3,0-4.2,1.9-4.2,4.2s1.9,4.2,4.2,4.2s4.2-1.9,4.2-4.2S460.7,382.4,458.4,382.4z M442.6,382.4 c-2.3,0-4.2,1.9-4.2,4.2s1.9,4.2,4.2,4.2s4.2-1.9,4.2-4.2S444.9,382.4,442.6,382.4z M494,380.3c2.5,0,4.8,1.5,5.8,3.8 c0,0.1,0.1,0.2,0.3,0.2h3.2c1.2,0,1.6-0.4,1.6-1.6v-12.5c0-0.3,0-0.5-0.1-0.7c0-0.1-0.1-0.2-0.3-0.2H490c-0.6,0-1-0.5-1-1V355 c0-0.2-0.1-0.3-0.3-0.3h-4c-0.2,0-0.3,0.1-0.3,0.3v29c0,0.2,0.1,0.3,0.3,0.3h3.2c0.1,0,0.2-0.1,0.3-0.2 C489.2,381.8,491.5,380.3,494,380.3z M458.4,380.3c2.5,0,4.8,1.5,5.8,3.8c0,0.1,0.1,0.2,0.3,0.2h17.7c0.2,0,0.3-0.1,0.3-0.3v-6.6 c0-0.2-0.1-0.3-0.3-0.3h-51.4c-0.2,0-0.3,0.1-0.3,0.3v6.6c0,0.2,0.1,0.3,0.3,0.3h5.8c0.1,0,0.2-0.1,0.3-0.2c1-2.3,3.3-3.8,5.8-3.8 c2.5,0,4.8,1.5,5.8,3.8c0,0.1,0.1,0.2,0.3,0.2h3.8c0.1,0,0.2-0.1,0.3-0.2C453.6,381.8,455.9,380.3,458.4,380.3z M449.2,353.4 c-0.2,0-0.3,0.1-0.3,0.3v21.1c0,0.2,0.1,0.3,0.3,0.3h19.1c4.9,0,8.8-4.9,8.8-10.8c0-6-4-10.8-8.8-10.8H449.2z M442.6,369.2 c-0.2,0-0.3,0.1-0.3,0.3v5.3c0,0.2,0.1,0.3,0.3,0.3h4c0.2,0,0.3-0.1,0.3-0.3v-5.3c0-0.2-0.1-0.3-0.3-0.3H442.6z M439.3,353.4 c-4.9,0-8.8,4.9-8.8,10.8c0,6,4,10.8,8.8,10.8h0.7c0.2,0,0.3-0.1,0.3-0.3v-21.1c0-0.2-0.1-0.3-0.3-0.3H439.3z M491.3,354.7 c-0.2,0-0.3,0.1-0.3,0.3v11.9c0,0.2,0.1,0.3,0.3,0.3h11.2c0.1,0,0.2-0.1,0.3-0.2c0-0.1,0-0.2,0-0.3l-8.7-11.2c0,0,0,0,0,0 c-0.5-0.4-1.2-0.7-1.8-0.7c0,0,0,0,0,0H491.3z M442.6,361.3c-0.2,0-0.3,0.1-0.3,0.3v5.3c0,0.2,0.1,0.3,0.3,0.3h4 c0.2,0,0.3-0.1,0.3-0.3v-5.3c0-0.2-0.1-0.3-0.3-0.3H442.6z M442.6,353.4c-0.2,0-0.3,0.1-0.3,0.3v5.3c0,0.2,0.1,0.3,0.3,0.3h4 c0.2,0,0.3-0.1,0.3-0.3v-5.3c0-0.2-0.1-0.3-0.3-0.3H442.6z M459.7,348.2c-0.2,0-0.3,0.1-0.3,0.3v2.6c0,0.2,0.1,0.3,0.3,0.3h6.6 c0.2,0,0.3-0.1,0.3-0.3v-2.6c0-0.2-0.1-0.3-0.3-0.3H459.7z"></path> </g> <g id="warmtewisselaar"> <path fill="#FFFFFF" d="M177.4,167.9h-38.5v-4.6h-8.6l0,4.6h-6.9c-2.2,0-3.9,1.8-3.9,3.9v21.2c0,2.2,1.8,3.9,3.9,3.9l39.1,0v4.4 h8.2V197h6.7c2.2,0,3.9-1.8,3.9-3.9v-21.2C181.3,169.6,179.5,167.9,177.4,167.9z M121.6,193.1v-21.2c0-0.9,0.8-1.7,1.7-1.7h3.4 v24.6h-3.4C122.4,194.7,121.6,194,121.6,193.1z M170.5,194.7c-1.2,0-2.1,1-2.1,2.1v2.3h-3.7V197c0-1.2-1-2.2-2.2-2.2H129v-24.6h1.3 c1.2,0,2.2-1,2.2-2.2v-2.3h4.2v2.5c0,1.2,0.9,2.1,2.1,2.1h33.4v24.6H170.5z M179,193.1c0,0.9-0.8,1.7-1.7,1.7h-3v-24.6h3 c0.9,0,1.7,0.8,1.7,1.7V193.1z"></path> <path fill="#FFFFFF" d="M162.5,173.4c-1.6,0-2.8,0.5-3.7,1.4c-1.3,1.4-1.2,3.3-1.2,3.5v9.4l0,0.1c0,0,0.1,1.1-0.6,1.9 c-0.4,0.5-1.2,0.8-2.1,0.8c-3.1-0.2-3.3-2.7-3.3-3.2v-8.6c0-0.2,0-2.4-1.5-3.9c-0.9-0.9-2.2-1.3-3.7-1.3c-1.6,0-2.8,0.6-3.7,1.5 c-1.3,1.4-1.2,3.3-1.2,3.4v8.9c0,0,0,1.3-0.8,2.1c-0.5,0.5-1.1,0.7-2.1,0.7c-2.7,0-2.9-2.7-2.9-2.9v-13.3c0-0.6-0.5-1.1-1.1-1.1 c-0.6,0-1.1,0.5-1.1,1.1l0,13.4c0.1,1.8,1.3,5.1,5.2,5.1c1.5,0,2.8-0.5,3.7-1.4c1.4-1.5,1.4-3.5,1.4-3.7l0-8.9c0,0,0-1.1,0.6-1.9 c0.4-0.5,1.2-0.7,2.1-0.8c0.9,0,1.5,0.2,2,0.6c0.8,0.8,0.9,2.2,0.9,2.3v8.6c0,1.8,1.1,5.2,5.5,5.5c1.7,0,3-0.5,3.9-1.5 c1.2-1.4,1.1-3.1,1.1-3.5l0-9.4c0,0-0.1-1.1,0.6-1.9c0.4-0.5,1.1-0.7,2-0.7c1.1,0,1.8,0.3,2.3,0.8c0.6,0.7,0.5,1.8,0.5,1.8l0,13.5 c0,0.6,0.5,1.1,1.1,1.1s1.1-0.5,1.1-1.1v-13.3c0-0.4,0.1-2.1-1-3.4C165.6,174,164.3,173.4,162.5,173.4z"></path> </g> <g> <path fill="#FFFFFF" d="M266.2,145.8c0.1,1.4,1.2,2.3,2.9,2.3c1.4,0,2.4-0.6,2.4-1.7c0-1.2-1.1-1.4-3.5-1.9 c-2.4-0.4-4.5-1.2-4.5-4.1c0-2.5,2.1-4.3,5.3-4.3c3.3,0,5.4,1.7,5.5,4.4h-3c-0.1-1.2-1-2-2.5-2c-1.3,0-2.2,0.5-2.2,1.6 c0,1.1,1.1,1.4,3.4,1.8c2.4,0.4,4.6,1.2,4.5,4c0,2.6-2.2,4.5-5.5,4.5c-3.6,0-5.8-1.9-5.8-4.8L266.2,145.8z"></path> <path fill="#FFFFFF" d="M286.9,145.2c0,3.2-2,5.3-4.8,5.3c-1.4,0-2.5-0.6-3.1-1.4v5.3h-2.8V140h2.5l0.3,1.4 c0.7-0.9,1.7-1.6,3.2-1.6C284.9,139.9,286.9,141.9,286.9,145.2z M284,145.2c0-1.8-1-3-2.6-3c-1.6,0-2.5,1.2-2.5,3c0,1.8,1,3,2.5,3 C283,148.2,284,146.9,284,145.2z"></path> <path fill="#FFFFFF" d="M288.1,145.2c0-3.2,2.1-5.3,5.3-5.3c3.1,0,5.2,1.9,5.2,5c0,0.3,0,0.6-0.1,1h-7.5v0.1c0.1,1.5,1,2.4,2.4,2.4 c1.1,0,2-0.5,2.2-1.5h2.8c-0.3,2-2.1,3.6-4.9,3.6C290.2,150.5,288.1,148.4,288.1,145.2z M295.8,144c-0.2-1.3-1.1-2-2.4-2 c-1.2,0-2.2,0.7-2.3,2H295.8z"></path> <path fill="#FFFFFF" d="M299.8,145.2c0-3.2,2.1-5.3,5.4-5.3c2.8,0,4.6,1.5,5,4h-3c-0.2-1-0.9-1.7-2.1-1.7c-1.5,0-2.4,1.2-2.4,3 c0,1.8,0.9,3,2.4,3c1.1,0,1.9-0.7,2.1-1.7h3c-0.4,2.5-2.3,4-5.1,4C301.8,150.5,299.8,148.5,299.8,145.2z"></path> <path fill="#FFFFFF" d="M311.5,137.3c0-0.9,0.7-1.6,1.7-1.6c0.9,0,1.7,0.7,1.7,1.6c0,0.9-0.7,1.6-1.7,1.6 C312.2,138.9,311.5,138.2,311.5,137.3z M311.7,140h2.9v10.4h-2.9V140z"></path> <path fill="#FFFFFF" d="M326.7,148v2.4h-1.5c-1.5,0-1.9-0.7-1.9-1.7c-0.7,1.1-1.8,1.8-3.4,1.8c-2.2,0-3.8-1.1-3.8-3 c0-2.2,1.7-3.4,4.8-3.4h2.1v-0.5c0-0.9-0.7-1.5-1.9-1.5c-1.1,0-1.9,0.5-2,1.3h-2.7c0.2-2,2.1-3.3,4.8-3.3c2.9,0,4.6,1.3,4.6,3.8 v3.7c0,0.5,0.2,0.6,0.7,0.6H326.7z M322.9,145.9h-2.1c-1.2,0-1.9,0.5-1.9,1.4c0,0.7,0.6,1.2,1.5,1.2c1.5,0,2.4-0.9,2.4-2.3V145.9z"></path> <path fill="#FFFFFF" d="M327.8,136.3h2.8v14.1h-2.8V136.3z"></path> <path fill="#FFFFFF" d="M332.4,137.3c0-0.9,0.7-1.6,1.7-1.6c0.9,0,1.7,0.7,1.7,1.6c0,0.9-0.7,1.6-1.7,1.6 C333.1,138.9,332.4,138.2,332.4,137.3z M332.6,140h2.9v10.4h-2.9V140z"></path> <path fill="#FFFFFF" d="M338.2,142.4h-1.7V140h1.7v-2.9h2.8v2.9h2.4v2.4H341v4.5c0,0.7,0.3,1,1,1h1.4v2.4h-2.3c-2,0-3-1-3-3V142.4z "></path> <path fill="#FFFFFF" d="M343.8,140h3l2.5,7.4l2.5-7.4h3l-4.6,11.8c-0.6,1.7-1.2,2.6-2.8,2.6h-2.8V152h1.6c0.7,0,1-0.2,1.2-0.9 l0.3-0.7L343.8,140z"></path> <path fill="#FFFFFF" d="M265.8,165.7c0.1,0.9,0.9,1.5,2.3,1.5c1.2,0,1.9-0.4,1.9-1.1c0-0.8-0.7-0.9-2.4-1.1c-2.4-0.3-4.3-0.8-4.3-3 c0-2.1,1.8-3.4,4.5-3.4c2.8,0,4.7,1.2,4.8,3.3h-2.7c-0.1-0.8-0.9-1.3-2-1.3c-1.1,0-1.8,0.4-1.8,1.1c0,0.8,0.9,0.9,2.4,1 c2.4,0.2,4.4,0.8,4.4,3.1c0,2.1-1.9,3.4-4.7,3.4c-2.9,0-4.8-1.4-5-3.6H265.8z"></path> <path fill="#FFFFFF" d="M273.8,164c0-3.2,2.1-5.3,5.3-5.3c3.1,0,5.2,1.9,5.2,5c0,0.3,0,0.6-0.1,1h-7.5v0.1c0.1,1.5,1,2.4,2.4,2.4 c1.1,0,2-0.5,2.2-1.5h2.8c-0.3,2-2.1,3.6-4.9,3.6C275.9,169.3,273.8,167.2,273.8,164z M281.5,162.8c-0.2-1.3-1.1-2-2.4-2 c-1.2,0-2.2,0.7-2.3,2H281.5z"></path> <path fill="#FFFFFF" d="M292.3,158.8v2.6h-1.1c-1.7,0-2.3,1.1-2.3,2.7v5.1H286v-10.4h2.6l0.3,1.6c0.6-0.9,1.4-1.6,3-1.6H292.3z"></path> <path fill="#FFFFFF" d="M292.7,158.8h3l2.5,7.5l2.5-7.5h3l-3.7,10.4h-3.5L292.7,158.8z"></path> <path fill="#FFFFFF" d="M304.4,156.1c0-0.9,0.7-1.6,1.7-1.6c0.9,0,1.7,0.7,1.7,1.6c0,0.9-0.7,1.6-1.7,1.6 C305.2,157.7,304.4,157,304.4,156.1z M304.7,158.8h2.9v10.4h-2.9V158.8z"></path> <path fill="#FFFFFF" d="M309.1,164c0-3.2,2.1-5.3,5.4-5.3c2.8,0,4.6,1.5,5,4h-3c-0.2-1-0.9-1.7-2.1-1.7c-1.5,0-2.4,1.2-2.4,3 c0,1.8,0.9,3,2.4,3c1.1,0,1.9-0.7,2.1-1.7h3c-0.4,2.5-2.3,4-5.1,4C311.1,169.3,309.1,167.3,309.1,164z"></path> <path fill="#FFFFFF" d="M320.6,164c0-3.2,2.1-5.3,5.3-5.3c3.1,0,5.2,1.9,5.2,5c0,0.3,0,0.6-0.1,1h-7.5v0.1c0.1,1.5,1,2.4,2.4,2.4 c1.1,0,2-0.5,2.2-1.5h2.8c-0.3,2-2.1,3.6-4.9,3.6C322.6,169.3,320.6,167.2,320.6,164z M328.3,162.8c-0.2-1.3-1.1-2-2.4-2 c-1.2,0-2.2,0.7-2.3,2H328.3z"></path> <path fill="#FFFFFF" d="M334.8,165.7c0.1,0.9,0.9,1.5,2.3,1.5c1.2,0,1.9-0.4,1.9-1.1c0-0.8-0.7-0.9-2.4-1.1c-2.4-0.3-4.3-0.8-4.3-3 c0-2.1,1.8-3.4,4.5-3.4c2.8,0,4.7,1.2,4.8,3.3h-2.7c-0.1-0.8-0.9-1.3-2-1.3c-1.1,0-1.8,0.4-1.8,1.1c0,0.8,0.9,0.9,2.4,1 c2.4,0.2,4.4,0.8,4.4,3.1c0,2.1-1.9,3.4-4.7,3.4c-2.9,0-4.8-1.4-5-3.6H334.8z"></path> </g> <g> <path fill="#FFFFFF" d="M440.9,216.3h4l3.9,10.4l3.8-10.4h3.9v14.1h-2.9V221l-3.7,9.5h-2.5l-3.7-9.5v9.5h-2.9V216.3z"></path> <path fill="#FFFFFF" d="M465.6,220.1h2.8v10.4h-2.5l-0.3-1.2c-0.7,0.8-1.6,1.4-3,1.4c-2.1,0-4.1-1.1-4.1-4.7v-5.7h2.8v5.4 c0,1.9,0.6,2.8,2,2.8s2.2-1,2.2-2.9V220.1z"></path> <path fill="#FFFFFF" d="M470.4,216.3h2.8v14.1h-2.8V216.3z"></path> <path fill="#FFFFFF" d="M476,222.5h-1.7v-2.4h1.7v-2.9h2.8v2.9h2.4v2.4h-2.4v4.5c0,0.7,0.3,1,1,1h1.4v2.4h-2.3c-2,0-3-1-3-3V222.5z "></path> <path fill="#FFFFFF" d="M482.4,217.4c0-0.9,0.7-1.6,1.7-1.6c0.9,0,1.7,0.7,1.7,1.6c0,0.9-0.7,1.6-1.7,1.6 C483.1,219,482.4,218.3,482.4,217.4z M482.6,220.1h2.9v10.4h-2.9V220.1z"></path> <path fill="#FFFFFF" d="M487.2,225.9v-2.3h7.1v2.3H487.2z"></path> <path fill="#FFFFFF" d="M456.9,243.3v5.9h-2.8v-5.8c0-1.6-0.6-2.4-1.8-2.4s-2.1,0.9-2.1,2.5v5.7h-2.8v-5.8c0-1.6-0.6-2.4-1.8-2.4 c-1.2,0-2,0.9-2,2.5v5.6h-2.8v-10.4h2.5l0.3,1.3c0.6-0.8,1.5-1.4,3-1.4c1.3,0,2.5,0.4,3.1,1.8c0.7-1.1,1.9-1.8,3.5-1.8 C455.2,238.8,456.9,240,456.9,243.3z"></path> <path fill="#FFFFFF" d="M458.3,244.1c0-3.2,2.2-5.3,5.5-5.3s5.5,2.1,5.5,5.3c0,3.2-2.2,5.3-5.5,5.3S458.3,247.2,458.3,244.1z M466.3,244.1c0-1.8-1-3-2.6-3c-1.6,0-2.6,1.2-2.6,3c0,1.8,1,3,2.6,3C465.3,247,466.3,245.8,466.3,244.1z"></path> <path fill="#FFFFFF" d="M478.3,235.1h2.8v14.1h-2.5l-0.3-1.4c-0.7,0.9-1.7,1.6-3.2,1.6c-2.8,0-4.8-2-4.8-5.3c0-3.2,2-5.3,4.8-5.3 c1.4,0,2.5,0.6,3.1,1.4V235.1z M478.3,244.1c0-1.8-1-3-2.5-3c-1.6,0-2.5,1.2-2.5,3c0,1.8,1,3,2.5,3 C477.4,247,478.3,245.8,478.3,244.1z"></path> <path fill="#FFFFFF" d="M493.3,246.8v2.4h-1.5c-1.5,0-1.9-0.7-1.9-1.7c-0.7,1.1-1.8,1.8-3.4,1.8c-2.2,0-3.8-1.1-3.8-3 c0-2.2,1.7-3.4,4.8-3.4h2.1v-0.5c0-0.9-0.7-1.5-1.9-1.5c-1.1,0-1.9,0.5-2,1.3H483c0.2-2,2.1-3.3,4.8-3.3c2.9,0,4.6,1.3,4.6,3.8v3.7 c0,0.5,0.2,0.6,0.7,0.6H493.3z M489.5,244.8h-2.1c-1.2,0-1.9,0.5-1.9,1.4c0,0.7,0.6,1.2,1.5,1.2c1.5,0,2.4-0.9,2.4-2.3V244.8z"></path> <path fill="#FFFFFF" d="M494.4,235.1h2.8v14.1h-2.8V235.1z"></path> <path fill="#FFFFFF" d="M499,236.2c0-0.9,0.7-1.6,1.7-1.6c0.9,0,1.7,0.7,1.7,1.6c0,0.9-0.7,1.6-1.7,1.6 C499.8,237.8,499,237.1,499,236.2z M499.3,238.9h2.9v10.4h-2.9V238.9z"></path> <path fill="#FFFFFF" d="M504.8,241.3h-1.7v-2.4h1.7V236h2.8v2.9h2.4v2.4h-2.4v4.5c0,0.7,0.3,1,1,1h1.4v2.4h-2.3c-2,0-3-1-3-3V241.3 z"></path> <path fill="#FFFFFF" d="M510.4,238.9h3l2.5,7.4l2.5-7.4h3l-4.6,11.8c-0.6,1.7-1.2,2.6-2.8,2.6h-2.8v-2.4h1.6c0.7,0,1-0.2,1.2-0.9 l0.3-0.7L510.4,238.9z"></path> <path fill="#FFFFFF" d="M440.7,253.9h2.8V268h-2.8V253.9z"></path> <path fill="#FFFFFF" d="M445.1,262.9c0-3.2,2.2-5.3,5.5-5.3s5.5,2.1,5.5,5.3c0,3.2-2.2,5.3-5.5,5.3S445.1,266,445.1,262.9z M453.2,262.9c0-1.8-1-3-2.6-3c-1.6,0-2.6,1.2-2.6,3c0,1.8,1,3,2.6,3C452.2,265.8,453.2,264.6,453.2,262.9z"></path> <path fill="#FFFFFF" d="M465.5,257.7h2.5v10.1c0,2.6-1.6,4.5-5.5,4.5c-2.9,0-4.9-1.3-5-3.7h2.9c0.3,1,1,1.6,2.4,1.6 c1.6,0,2.5-0.8,2.5-2.4v-1.1c-0.7,0.9-1.7,1.4-3.2,1.4c-2.8,0-4.8-2-4.8-5.2c0-3.2,2-5.2,4.8-5.2c1.5,0,2.5,0.7,3.2,1.6 L465.5,257.7z M465.2,262.8c0-1.7-1-3-2.5-3c-1.6,0-2.5,1.2-2.5,2.9s1,2.9,2.5,2.9C464.2,265.7,465.2,264.5,465.2,262.8z"></path> <path fill="#FFFFFF" d="M469.7,255c0-0.9,0.7-1.6,1.7-1.6c0.9,0,1.7,0.7,1.7,1.6c0,0.9-0.7,1.6-1.7,1.6 C470.5,256.6,469.7,255.9,469.7,255z M470,257.7h2.9V268H470V257.7z"></path> <path fill="#FFFFFF" d="M477,264.6c0.1,0.9,0.9,1.5,2.3,1.5c1.2,0,1.9-0.4,1.9-1.1c0-0.8-0.7-0.9-2.4-1.1c-2.4-0.3-4.3-0.8-4.3-3 c0-2.1,1.8-3.4,4.5-3.4c2.8,0,4.7,1.2,4.8,3.3h-2.7c-0.1-0.8-0.9-1.3-2-1.3c-1.1,0-1.8,0.4-1.8,1.1c0,0.8,0.9,0.9,2.4,1 c2.4,0.2,4.4,0.8,4.4,3.1c0,2.1-1.9,3.4-4.7,3.4c-2.9,0-4.8-1.4-5-3.6H477z"></path> <path fill="#FFFFFF" d="M486.2,260.1h-1.7v-2.4h1.7v-2.9h2.8v2.9h2.4v2.4H489v4.5c0,0.7,0.3,1,1,1h1.4v2.4h-2.3c-2,0-3-1-3-3V260.1 z"></path> <path fill="#FFFFFF" d="M492.6,255c0-0.9,0.7-1.6,1.7-1.6c0.9,0,1.7,0.7,1.7,1.6c0,0.9-0.7,1.6-1.7,1.6 C493.3,256.6,492.6,255.9,492.6,255z M492.8,257.7h2.9V268h-2.9V257.7z"></path> <path fill="#FFFFFF" d="M497.2,262.9c0-3.2,2.1-5.3,5.4-5.3c2.8,0,4.6,1.5,5,4h-3c-0.2-1-0.9-1.7-2.1-1.7c-1.5,0-2.4,1.2-2.4,3 c0,1.8,0.9,3,2.4,3c1.1,0,1.9-0.7,2.1-1.7h3c-0.4,2.5-2.3,4-5.1,4C499.2,268.2,497.2,266.1,497.2,262.9z"></path> <path fill="#FFFFFF" d="M511.3,264.6c0.1,0.9,0.9,1.5,2.3,1.5c1.2,0,1.9-0.4,1.9-1.1c0-0.8-0.7-0.9-2.4-1.1c-2.4-0.3-4.3-0.8-4.3-3 c0-2.1,1.8-3.4,4.5-3.4c2.8,0,4.7,1.2,4.8,3.3h-2.7c-0.1-0.8-0.9-1.3-2-1.3c-1.1,0-1.8,0.4-1.8,1.1c0,0.8,0.9,0.9,2.4,1 c2.4,0.2,4.4,0.8,4.4,3.1c0,2.1-1.9,3.4-4.7,3.4c-2.9,0-4.8-1.4-5-3.6H511.3z"></path> </g> <g transform="translate(-939 -355)"> <path fill="#FFFFFF" d="M1446.4,537.9l-8.2-6c0,0,0,0,0,0c-0.8-0.5-1.7-0.6-2.5-0.2c-0.8,0.4-1.3,1.3-1.3,2.2c0,0,0,0,0,0v1.8 h-10.6c-0.6,0-1.2,0.2-1.8,0.5V530c0-0.5-0.4-0.9-0.9-0.9c-0.5,0-0.9,0.4-0.9,0.9v27.6h-6.1v-37.8c0-0.5-0.4-0.9-0.9-0.9h-1.6 c-0.3,0-0.5-0.1-0.6-0.3c-0.1-0.2-0.1-0.4,0.1-0.5l5.6-7.6c0,0,0,0,0.1-0.1c0.1-0.2,0.3-0.4,0.5-0.4l0,0c0.1,0,0.3,0.1,0.5,0.4 c0,0,0,0.1,0.1,0.1l5.6,7.6c0.1,0.2,0.1,0.4,0.1,0.5c-0.1,0.2-0.3,0.3-0.6,0.3h-1.6c-0.5,0-0.9,0.4-0.9,0.9v6.3 c0,0.5,0.4,0.9,0.9,0.9c0.5,0,0.9-0.4,0.9-0.9v-5.4h0.7c0,0,0,0,0,0c0.9,0,1.8-0.5,2.2-1.2c0.4-0.7,0.3-1.6-0.1-2.4c0,0,0,0,0,0 l-5.6-7.6c-0.5-0.8-1.2-1.2-2-1.2l0,0c-0.8,0-1.5,0.4-2,1.2l-5.6,7.6c0,0,0,0,0,0c-0.5,0.7-0.5,1.6-0.1,2.4 c0.4,0.8,1.2,1.2,2.2,1.2c0,0,0,0,0,0h0.7v7.4c-0.5-0.3-1.1-0.5-1.8-0.5h-10.6v-1.7v0c0-1-0.5-1.8-1.3-2.2 c-0.8-0.4-1.7-0.4-2.5,0.1c0,0,0,0,0,0l-8.2,6c-0.8,0.5-1.2,1.2-1.2,2c0,0.8,0.5,1.5,1.2,2l8.2,6c0,0,0,0,0,0 c0.8,0.5,1.7,0.6,2.5,0.1c0.8-0.4,1.3-1.3,1.3-2.2c0,0,0,0,0,0V536h4.4v10.4c0,0.5,0.4,0.9,0.9,0.9c0.5,0,0.9-0.4,0.9-0.9v-11.3 c0-0.5-0.4-0.9-0.9-0.9h-6.2c-0.5,0-0.9,0.4-0.9,0.9v2.6c0,0.3-0.1,0.6-0.3,0.7c-0.2,0.1-0.4,0.1-0.6-0.1l-8.2-6c0,0,0,0-0.1,0 c-0.3-0.2-0.4-0.4-0.4-0.5c0-0.2,0.2-0.4,0.4-0.5c0,0,0.1,0,0.1,0l8.2-6c0.2-0.1,0.5-0.2,0.6-0.1c0.2,0.1,0.3,0.4,0.3,0.7v2.6 c0,0.5,0.4,0.9,0.9,0.9h11.4c1,0,1.8,0.8,1.8,1.8v26.5h-6.1v-7.3c0-0.5-0.4-0.9-0.9-0.9c-0.5,0-0.9,0.4-0.9,0.9v8.2 c0,0.5,0.4,0.9,0.9,0.9h23.7c0.5,0,0.9-0.4,0.9-0.9v-14.4h4.4v1.8c0,0,0,0,0,0c0,1,0.5,1.8,1.3,2.2c0.8,0.4,1.7,0.4,2.5-0.2 c0,0,0,0,0,0l8.2-6c0.8-0.5,1.3-1.2,1.3-2C1447.7,539.1,1447.2,538.4,1446.4,537.9z M1445.5,540.4 C1445.4,540.5,1445.4,540.5,1445.5,540.4l-8.3,6c-0.2,0.1-0.5,0.2-0.6,0.1c-0.2-0.1-0.3-0.4-0.3-0.7v-2.6c0-0.5-0.4-0.9-0.9-0.9 h-6.2c-0.5,0-0.9,0.4-0.9,0.9v14.4h-6.1v-18.4c0-1,0.8-1.8,1.8-1.8h11.4c0.5,0,0.9-0.4,0.9-0.9V534c0-0.3,0.1-0.6,0.3-0.7 c0.2-0.1,0.4-0.1,0.6,0.1l8.2,6c0,0,0,0,0.1,0c0.3,0.2,0.4,0.4,0.4,0.5C1445.9,540.1,1445.7,540.3,1445.5,540.4z"></path> </g> <path fill="#FFFFFF" d="M322.8,122.3c-0.9,0-1.8-0.3-2.5-0.8l-13-9.3l-13,9.3c-1.5,1.1-3.6,1.1-5.1,0c-1.5-1.1-2.1-3-1.6-4.7l5-15 l-4.9-3.5c-0.4-0.3-0.5-0.8-0.2-1.2c0.3-0.4,0.8-0.5,1.2-0.2l5.4,3.8c0.3,0.2,0.4,0.6,0.3,0.9l-5.2,15.6c-0.3,1,0,2.2,0.9,2.8 c0.9,0.6,2.1,0.6,3.1,0l13.5-9.6c0.3-0.2,0.7-0.2,1,0l13.5,9.6c0.9,0.6,2.1,0.6,3.1,0c0.9-0.6,1.3-1.8,0.9-2.8l-5.2-15.6 c-0.1-0.3,0-0.7,0.3-0.9l13.5-9.6c0.9-0.6,1.3-1.8,0.9-2.8c-0.3-1-1.3-1.8-2.5-1.8h-16.8c-0.4,0-0.7-0.2-0.8-0.6l-5.2-15.6 c-0.3-1-1.3-1.8-2.5-1.8s-2.1,0.7-2.5,1.8l-5.2,15.6c-0.1,0.3-0.4,0.6-0.8,0.6H282c-1.1,0-2.1,0.7-2.5,1.8c-0.3,1,0,2.2,0.9,2.8 l5.4,3.8c0.4,0.3,0.5,0.8,0.2,1.2c-0.3,0.4-0.8,0.5-1.2,0.2l-5.4-3.8c-1.5-1.1-2.1-3-1.6-4.7c0.6-1.7,2.2-2.9,4.1-2.9h16.1l5-15 c0.6-1.7,2.2-2.9,4.1-2.9s3.5,1.2,4.1,2.9l5,15h16.1c1.9,0,3.5,1.2,4.1,2.9c0.6,1.7-0.1,3.7-1.6,4.7l-13,9.3l5,15 c0.6,1.7-0.1,3.7-1.6,4.7C324.6,122,323.7,122.3,322.8,122.3L322.8,122.3z"></path> <g> </g> <g> </g> <g> </g> <g> </g> <g> </g> <g> </g> </svg> 